<svg width="900" height="600" viewBox="0 0 900 600" fill="none" xmlns="http://www.w3.org/2000/svg">
<g clip-path="url(#clip0_925_9)">
<path d="M0 432L41.5 437.8C68 440.8 86 437.7 128.8 440.8C171.7 444 214.3 441 257.2 437.8C300 434.7 343 431.3 385.8 433.8C428.7 436.3 471.3 444.7 514.2 443.3C557 442 600 431 642.8 426.5C685.7 422 728.3 424 771.2 421.7C814 419.3 872 402 879 402.5C886 403 890.5 401 900 405C909.5 409 900 601 900 601H878.5C857 601 814 601 771.2 601C728.3 601 685.7 601 642.8 601C600 601 557 601 514.2 601C471.3 601 428.7 601 385.8 601C343 601 300 601 257.2 601C214.3 601 171.7 601 128.8 601C86 601 43 601 21.5 601H0V432Z" fill="#00FFF0"/>
<path d="M0 445.5L24 454C47.5 457 86 480.3 128.8 476C171.7 471.7 214.3 457.3 257.2 458.5C300 459.7 343 476.3 385.8 483.7C428.7 491 471.3 489 514.2 489.7C557 490.3 600 493.7 642.8 488.3C685.7 483 728.3 469 771.2 466.3C814 463.7 854 447.6 875.5 452C875.5 452 885.5 456.5 900 458C914.5 459.5 900 601 900 601H878.5C857 601 814 601 771.2 601C728.3 601 685.7 601 642.8 601C600 601 557 601 514.2 601C471.3 601 428.7 601 385.8 601C343 601 300 601 257.2 601C214.3 601 171.7 601 128.8 601C86 601 43 601 21.5 601H0V445.5Z" fill="#00EAFD"/>
<path d="M0 495L21.5 493.7C43 490.3 86 483.7 128.8 487C171.7 490.3 214.3 503.7 257.2 510.3C300 517 343 517 385.8 511.2C428.7 505.3 471.3 493.7 514.2 490.7C557 487.7 600 493.3 642.8 500.2C685.7 507 728.3 515 771.2 519.7C814 524.3 823.5 507.5 836 501.5C836 501.5 871.5 481.5 900 480C928.5 478.5 900 601 900 601H878.5C857 601 814 601 771.2 601C728.3 601 685.7 601 642.8 601C600 601 557 601 514.2 601C471.3 601 428.7 601 385.8 601C343 601 300 601 257.2 601C214.3 601 171.7 601 128.8 601C86 601 43 601 21.5 601H0V495Z" fill="#00D3FF"/>
<path d="M0 507L21.5 517C36.5 525 86 528.7 128.8 528.8C171.7 529 214.3 528 257.2 526.5C300 525 343 523 385.8 525C428.7 527 471.3 533 514.2 536.3C557 539.7 600 540.3 642.8 541C685.7 541.7 728.3 542.3 771.2 543.5C814 544.7 873 531.5 882 530C891 528.5 900 528 900 528V601H878.5C857 601 814 601 771.2 601C728.3 601 685.7 601 642.8 601C600 601 557 601 514.2 601C471.3 601 428.7 601 385.8 601C343 601 300 601 257.2 601C214.3 601 171.7 601 128.8 601C86 601 43 601 21.5 601H0V507Z" fill="#00BAFF"/>
<path d="M0 556L22 554.5C43.5 552.8 86 547.7 128.8 546C171.7 544.3 214.3 547.7 257.2 549.3C300 551 343 551 385.8 553.7C428.7 556.3 471.3 561.7 514.2 566C557 570.3 600 573.7 642.8 574.7C685.7 575.7 728.3 574.3 771.2 572.2C814 570 870.5 558 878.5 558C886.5 558 900 558 900 558V601H878.5C857 601 814 601 771.2 601C728.3 601 685.7 601 642.8 601C600 601 557 601 514.2 601C471.3 601 428.7 601 385.8 601C343 601 300 601 257.2 601C214.3 601 171.7 601 128.8 601C86 601 43 601 21.5 601H0V556Z" fill="#089EFF"/>
</g>
<defs>
<clipPath id="clip0_925_9">
<rect width="900" height="600" fill="white"/>
</clipPath>
</defs>
</svg>
