<svg width="900" height="600" viewBox="0 0 900 600" fill="none" xmlns="http://www.w3.org/2000/svg">
<g clip-path="url(#clip0_925_2)">
<path d="M0.000162601 405C10.5002 411.5 21.5002 415.8 21.5002 415.8C43.0002 426.7 86.0003 448.3 128.8 458.2C171.7 468 214.3 466 257.2 462.5C300 459 343 454 385.8 444.5C428.7 435 471.3 421 514.2 424.8C557 428.7 600 450.3 642.8 457.3C685.7 464.3 728.3 456.7 771.2 450C814 443.3 839.5 439.4 861 436.5C861 436.5 887.5 429.5 900 432C912.5 434.5 900 601 900 601H878.5C857 601 814 601 771.2 601C728.3 601 685.7 601 642.8 601C600 601 557 601 514.2 601C471.3 601 428.7 601 385.8 601C343 601 300 601 257.2 601C214.3 601 171.7 601 128.8 601C86.0003 601 43.0002 601 21.5002 601H0.000162601C0.000162601 601 -10.4998 398.5 0.000162601 405Z" fill="#00FFF0"/>
<path d="M0 458L21.5 458.8C43 459.7 86 461.3 128.8 459.2C171.7 457 214.3 451 257.2 446.2C300 441.3 343 437.7 385.8 445.3C428.7 453 471.3 472 514.2 474.7C557 477.3 600 463.7 642.8 460.2C685.7 456.7 728.3 463.3 771.2 461.5C814 459.7 856 445.5 878.5 444.2C878.5 444.2 891 443 900 445.5C909 448 900 601 900 601H878.5C857 601 814 601 771.2 601C728.3 601 685.7 601 642.8 601C600 601 557 601 514.2 601C471.3 601 428.7 601 385.8 601C343 601 300 601 257.2 601C214.3 601 171.7 601 128.8 601C86 601 43 601 21.5 601H0V458Z" fill="#00EAFD"/>
<path d="M0.000162601 480C10.5002 479 50.5 491 50.5 491C50.5 491 86.0003 502.7 128.8 508.7C171.7 514.7 214.3 515.3 257.2 513.2C300 511 343 506 385.8 499.5C428.7 493 471.3 485 514.2 487.3C557 489.7 600 502.3 642.8 508.2C685.7 514 728.3 513 771.2 509.7C814 506.3 857 500.7 878.5 497.8L900 495V601H878.5C857 601 814 601 771.2 601C728.3 601 685.7 601 642.8 601C600 601 557 601 514.2 601C471.3 601 428.7 601 385.8 601C343 601 300 601 257.2 601C214.3 601 171.7 601 128.8 601C86.0003 601 43.0001 601 21.5001 601H0.000162601C0.000162601 601 -10.4998 481 0.000162601 480Z" fill="#00D3FF"/>
<path d="M0 528L21.5 527.2C43 526.3 86 524.7 128.8 525.2C171.7 525.7 214.3 528.3 257.2 530.2C300 532 343 533 385.8 529.7C428.7 526.3 471.3 518.7 514.2 521C557 523.3 600 535.7 642.8 535.8C685.7 536 728.3 524 771.2 517.2C814 510.3 851 509.2 857 508.5C863 507.8 888.5 504.5 900 507C911.5 509.5 900 601 900 601H878.5C857 601 814 601 771.2 601C728.3 601 685.7 601 642.8 601C600 601 557 601 514.2 601C471.3 601 428.7 601 385.8 601C343 601 300 601 257.2 601C214.3 601 171.7 601 128.8 601C86 601 43 601 21.5 601H0V528Z" fill="#00BAFF"/>
<path d="M0 558L21.5 557.2C43 556.3 86 554.7 128.8 557.2C171.7 559.7 214.3 566.3 257.2 566.2C300 566 343 559 385.8 557.5C428.7 556 471.3 560 514.2 564.3C557 568.7 600 573.3 642.8 570.8C685.7 568.3 728.3 558.7 771.2 555C814 551.3 857 553.7 878.5 554.8L900 556V601H878.5C857 601 814 601 771.2 601C728.3 601 685.7 601 642.8 601C600 601 557 601 514.2 601C471.3 601 428.7 601 385.8 601C343 601 300 601 257.2 601C214.3 601 171.7 601 128.8 601C86 601 43 601 21.5 601H0V558Z" fill="#089EFF"/>
</g>
<defs>
<clipPath id="clip0_925_2">
<rect width="900" height="600" fill="white"/>
</clipPath>
</defs>
</svg>
